<?xml version="1.0" standalone="no"?>
<!DOCTYPE svg PUBLIC "-//W3C//DTD SVG 20010904//EN"
 "http://www.w3.org/TR/2001/REC-SVG-20010904/DTD/svg10.dtd">
<svg version="1.0" xmlns="http://www.w3.org/2000/svg"
 width="284.000000pt" height="140.000000pt" viewBox="0 0 284.000000 140.000000"
 preserveAspectRatio="xMidYMid meet">

<g transform="translate(0.000000,140.000000) scale(0.100000,-0.100000)"
fill="#000000" stroke="none">
<path d="M622 983 l3 -408 25 -45 c31 -55 88 -90 148 -90 34 0 42 3 42 19 0
15 -10 19 -50 23 -58 6 -85 26 -111 83 -17 37 -19 73 -19 433 0 388 0 392 -20
392 -21 0 -21 -3 -18 -407z"/>
<path d="M2612 917 c3 -322 3 -323 28 -372 29 -58 89 -95 152 -95 31 0 38 4
38 20 0 17 -7 20 -39 20 -57 0 -102 35 -123 95 -14 41 -17 81 -15 220 l2 170
83 3 c63 2 82 6 82 17 0 11 -19 15 -82 17 l-83 3 -3 113 c-2 105 -4 112 -23
112 -20 0 -20 -3 -17 -323z"/>
<path d="M172 994 c-179 -89 -217 -328 -75 -470 68 -68 175 -97 272 -74 56 13
141 65 141 85 0 24 -24 22 -57 -3 -127 -95 -306 -53 -377 90 -50 100 -29 215
54 292 91 85 209 95 312 26 32 -21 46 -26 55 -18 19 16 -9 45 -72 74 -73 35
-182 34 -253 -2z"/>
<path d="M1022 994 c-179 -89 -217 -328 -75 -470 72 -72 184 -100 286 -70 80
23 135 69 175 146 32 61 34 70 30 145 -7 121 -63 207 -168 254 -69 31 -180 29
-248 -5z m232 -32 c88 -40 147 -130 147 -227 0 -131 -96 -239 -224 -252 -182
-19 -318 152 -265 330 7 22 33 62 58 89 77 85 179 106 284 60z"/>
<path d="M2160 999 c-152 -68 -214 -247 -139 -397 47 -95 125 -148 232 -159
l52 -5 0 -67 0 -66 -136 -58 c-167 -72 -235 -110 -242 -136 -3 -12 -1 -21 4
-21 5 0 9 6 9 13 0 8 8 21 18 30 21 19 325 157 346 157 18 0 29 50 24 110 -3
42 -2 43 37 54 41 13 125 63 125 75 0 4 -5 12 -12 19 -8 8 -17 6 -36 -8 -18
-15 -34 -18 -62 -14 -32 5 -40 2 -58 -21 -20 -26 -26 -27 -73 -22 -28 4 -71
18 -95 32 l-45 26 196 191 196 191 -22 23 c-12 13 -45 35 -73 49 -66 33 -178
35 -246 4z m187 -24 c28 -8 61 -23 72 -33 21 -17 20 -18 -157 -195 l-179 -179
-16 26 c-29 44 -46 127 -36 179 19 104 79 170 182 203 56 17 74 17 134 -1z
m37 -464 c6 -8 -25 -21 -53 -21 -11 0 -11 3 -1 15 14 16 46 20 54 6z"/>
<path d="M1550 995 c0 -13 22 -15 136 -15 129 0 136 -1 131 -19 -2 -10 -68
-125 -146 -254 -77 -129 -141 -238 -141 -241 0 -3 83 -6 185 -6 178 0 185 1
185 20 0 19 -7 20 -151 20 -117 0 -150 3 -146 13 2 6 70 121 150 255 l146 242
-174 0 c-149 0 -175 -2 -175 -15z"/>
<path d="M2330 297 c3 -3 64 -31 135 -62 179 -79 225 -104 225 -127 0 -10 4
-18 9 -18 17 0 -1 41 -25 57 -49 32 -362 169 -344 150z"/>
<path d="M1832 74 c-16 -11 -22 -24 -20 -42 l3 -27 494 -3 c272 -1 498 1 502
5 5 5 -216 8 -489 8 l-497 0 -3 23 c-2 12 -2 22 0 22 2 0 21 7 43 15 33 11 35
14 15 15 -14 0 -36 -7 -48 -16z"/>
<path d="M2760 78 c19 -5 41 -17 48 -26 6 -8 12 -11 12 -4 0 17 -42 42 -70 41
-21 -1 -20 -2 10 -11z"/>
</g>
</svg>
